PathFileType	3	(X/Y/Z)	D:\Vicon Setup\UG\Test1\New Session\NewSession10.trc
DataRate	CameraRate	NumFrames	NumMarkers	Units	OrigDataRate	OrigDataStartFrame	OrigNumFrames
100.0	100.0	4	27	mm	100.0	614	353	
Frame#	Time	Sternum			LShoulder			RShoulder			LASIS			RASIS			RPSIS			LPSIS			RKneeLateral			RKneeMedial			RFibulaHead			RMidShank			RAnkleLateral			RAnkleMedial			RHeel			RMT5			RMT2			RToe			LKneeLateral			LKneeMedial			LFibulaHead			LMidShank			LAnkleLateral			LAnkleMedial			LHeel			LMT5			LMT2			LToe			
		X1	Y1	Z1	X2	Y2	Z2	X3	Y3	Z3	X4	Y4	Z4	X5	Y5	Z5	X6	Y6	Z6	X7	Y7	Z7	X8	Y8	Z8	X9	Y9	Z9	X10	Y10	Z10	X11	Y11	Z11	X12	Y12	Z12	X13	Y13	Z13	X14	Y14	Z14	X15	Y15	Z15	X16	Y16	Z16	X17	Y17	Z17	X18	Y18	Z18	X19	Y19	Z19	X20	Y20	Z20	X21	Y21	Z21	X22	Y22	Z22	X23	Y23	Z23	X24	Y24	Z24	X25	Y25	Z25	X26	Y26	Z26	X27	Y27	Z27	
614	6.13	-249.6734	1359.2493	-788.03265	-70.66758	1440.7987	-889.70685	-434.96896	1401.6298	-859.94257	-130.25453	987.96387	-847.26062	-386.92593	999.6554	-861.37311	-300.88339	1019.1104	-1031.2399	-171.10406	1008.1034	-1027.661	-377.06177	536.16974	-999.94409	-245.94592	517.09131	-975.30865	-374.28311	453.87991	-1018.4469	-282.15225	292.77576	-1019.9395	-324.24707	104.05245	-1108.8994	-246.99831	129.87726	-1056.3579	-265.5939	85.216255	-1178.2202	-370.69803	26.751961	-968.37164	-303.40808	57.887215	-958.94495	-294.99554	39.364204	-908.87927	-81.334801	545.59576	-719.54834	-205.66011	537.46997	-694.60016	-76.486328	480.8139	-723.25861	-155.13625	334.11963	-668.07825	-109.02497	116.2212	-699.78339	-184.66269	148.00961	-656.35522	-177.82347	77.115746	-754.62891	-55.696842	74.597168	-566.80786	-115.29903	109.45264	-546.62512	-106.35409	106.80188	-486.73026
615	6.14	-249.14429	1356.5194	-773.67755	-70.18808	1438.1913	-875.29102	-434.40247	1399.4669	-845.47015	-129.48877	985.48126	-832.349	-386.38022	996.974	-846.77271	-300.26581	1016.5359	-1016.816	-170.56795	1004.9319	-1013.1448	-377.02747	536.47809	-992.83197	-245.76245	517.16077	-968.8396	-374.28708	454.43936	-1012.5552	-282.31036	293.22772	-1016.2183	-324.27136	105.58057	-1107.8273	-246.99481	130.72372	-1054.9758	-265.75742	87.56105	-1177.2079	-370.79654	26.518021	-968.28351	-303.52237	57.603786	-958.53528	-295.04425	39.159508	-908.81464	-84.034325	540.00348	-708.86243	-208.76224	531.44385	-683.83972	-79.216331	475.0845	-709.82904	-156.57233	332.03424	-644.43683	-108.77201	112.16319	-659.89978	-184.83372	147.05231	-619.74286	-176.53799	68.797569	-712.6062	-56.739407	80.697891	-523.50024	-116.58625	117.15339	-506.90646	-108.50456	119.3988	-446.97049
616	6.15	-248.54121	1353.6943	-759.24146	-69.603668	1435.4528	-860.78479	-433.73715	1397.1843	-830.95361	-128.58824	982.94196	-817.14838	-385.66693	994.3598	-831.52783	-299.51074	1013.7516	-1002.2323	-169.89395	1001.56	-998.41882	-376.995	536.76764	-985.28497	-245.71744	517.15027	-961.46448	-374.34149	455.00204	-1006.2474	-282.5675	293.69836	-1012.1458	-324.32339	107.26917	-1106.6713	-247.04501	131.66216	-1053.431	-265.94504	90.128891	-1176.0731	-370.90594	26.247543	-968.21967	-303.6579	57.302456	-958.11188	-295.10999	38.976795	-908.77203	-86.815544	534.11621	-698.88135	-212.42409	524.8396	-673.56879	-82.154579	469.50848	-697.00873	-158.01387	330.65674	-621.71741	-108.6819	109.76997	-621.84088	-184.99219	147.46674	-584.8028	-175.5231	62.629341	-672.08447	-57.510078	87.988319	-482.99857	-117.53803	125.78139	-469.78925	-110.13377	132.65463	-410.1611
617	6.16	-247.86324	1350.8453	-744.71454	-68.90799	1432.6194	-846.18451	-432.9653	1394.8318	-816.40741	-127.61549	980.33173	-801.68158	-384.88382	991.85095	-816.38269	-298.55893	1010.8106	-987.49878	-169.01227	998.04407	-983.50073	-376.94485	536.97534	-977.13525	-245.78578	516.95782	-953.02985	-374.4213	455.51395	-999.35437	-282.87851	294.16263	-1007.6423	-324.38745	109.14097	-1105.3932	-247.12848	132.6974	-1051.6763	-266.13776	92.945793	-1174.7855	-371.01807	25.969751	-968.17963	-303.79382	56.984344	-957.65985	-295.17429	38.80471	-908.74469	-89.517448	528.23956	-689.30762	-216.50777	518.02124	-663.7467	-85.152473	464.40833	-684.50098	-159.51596	329.94797	-600.06934	-108.80648	108.8768	-586.17352	-185.2401	149.0063	-551.99249	-174.89828	58.500668	-633.77466	-58.001614	96.044281	-445.82947	-118.17411	134.84851	-435.64142	-111.18045	145.90407	-376.53531
